<svg width="146" height="75" viewBox="0 0 146 75" fill="none" xmlns="http://www.w3.org/2000/svg">
<g id="deonaeun_logo">
<path id="Ellipse" d="M142.5 15C142.5 21.6274 137.127 27 130.5 27C123.873 27 118.5 21.6274 118.5 15C118.5 8.37258 123.873 3 130.5 3C137.127 3 142.5 8.37258 142.5 15Z" stroke="#FF752D" stroke-width="6"></path>
<path id="Line12" d="M142 71.5H3" stroke="#424242" stroke-width="6" stroke-linecap="round" stroke-linejoin="round"></path>
<path id="Line11" d="M142 42.5V71.5" stroke="#424242" stroke-width="6" stroke-linecap="round" stroke-linejoin="round"></path>
<path id="Line10" d="M117.5 42.5H142" stroke="#424242" stroke-width="6" stroke-linecap="round" stroke-linejoin="round"></path>
<path id="Line9" d="M90 34.5H104" stroke="#424242" stroke-width="6" stroke-linecap="round" stroke-linejoin="round"></path>
<path id="Line7" d="M54 57H79" stroke="#424242" stroke-width="6" stroke-linecap="round" stroke-linejoin="round"></path>
<path id="Line5" d="M41 35V56" stroke="#FF752D" stroke-width="6" stroke-linecap="round" stroke-linejoin="round"></path>
<path id="Line6" d="M54 34.5V57" stroke="#424242" stroke-width="6" stroke-linecap="round"></path>
<path id="Line8" d="M90 35V57" stroke="#424242" stroke-width="6" stroke-linecap="round" stroke-linejoin="round"></path>
<path id="Line4" d="M27 34.5H41" stroke="#FF752D" stroke-width="6" stroke-linecap="round" stroke-linejoin="round"></path>
<path id="Line3" d="M3 56H27" stroke="#FF752D" stroke-width="6" stroke-linecap="round" stroke-linejoin="round"></path>
<path id="Line2" d="M3 15V55.5" stroke="#FF752D" stroke-width="6" stroke-linecap="round" stroke-linejoin="round"></path>
<path id="Line1" d="M3 15H105" stroke="#FF752D" stroke-width="6" stroke-linecap="round" stroke-linejoin="round"></path>
</g>
</svg>